<mxfile host="app.diagrams.net" modified="2021-11-14T16:14:05.719Z" agent="5.0 (Windows NT 10.0; Win64; x64) AppleWebKit/537.36 (KHTML, like Gecko) Chrome/95.0.4638.69 Safari/537.36 Edg/95.0.1020.44" etag="U3c1OkeDdeOHeO-9jE7R" version="15.7.3" type="github">
  <diagram id="YC8fwgSEv_CdTE84D2Iw" name="Page-1">
    <mxGraphModel dx="972" dy="655" grid="1" gridSize="10" guides="1" tooltips="1" connect="1" arrows="1" fold="1" page="1" pageScale="1" pageWidth="827" pageHeight="1169" math="0" shadow="0">
      <root>
        <mxCell id="0" />
        <mxCell id="1" parent="0" />
        <mxCell id="e5nqMC2MjUgeMc-HwoTc-28" style="edgeStyle=orthogonalEdgeStyle;rounded=0;orthogonalLoop=1;jettySize=auto;html=1;exitX=1;exitY=0.5;exitDx=0;exitDy=0;fontSize=15;entryX=0;entryY=0.5;entryDx=0;entryDy=0;" edge="1" parent="1" source="e5nqMC2MjUgeMc-HwoTc-1" target="e5nqMC2MjUgeMc-HwoTc-37">
          <mxGeometry relative="1" as="geometry">
            <mxPoint x="330" y="440" as="targetPoint" />
          </mxGeometry>
        </mxCell>
        <mxCell id="e5nqMC2MjUgeMc-HwoTc-30" style="edgeStyle=orthogonalEdgeStyle;rounded=0;orthogonalLoop=1;jettySize=auto;html=1;exitX=1;exitY=0.75;exitDx=0;exitDy=0;entryX=1;entryY=0.5;entryDx=0;entryDy=0;fontSize=15;" edge="1" parent="1" source="e5nqMC2MjUgeMc-HwoTc-1" target="e5nqMC2MjUgeMc-HwoTc-21">
          <mxGeometry relative="1" as="geometry">
            <Array as="points">
              <mxPoint x="310" y="460" />
              <mxPoint x="310" y="600" />
            </Array>
          </mxGeometry>
        </mxCell>
        <mxCell id="e5nqMC2MjUgeMc-HwoTc-1" value="HW procurement&amp;nbsp;" style="rounded=0;whiteSpace=wrap;html=1;" vertex="1" parent="1">
          <mxGeometry x="80" y="400" width="200" height="80" as="geometry" />
        </mxCell>
        <mxCell id="e5nqMC2MjUgeMc-HwoTc-29" style="edgeStyle=orthogonalEdgeStyle;rounded=0;orthogonalLoop=1;jettySize=auto;html=1;exitX=1;exitY=0.75;exitDx=0;exitDy=0;entryX=1;entryY=0.25;entryDx=0;entryDy=0;fontSize=15;" edge="1" parent="1" source="e5nqMC2MjUgeMc-HwoTc-2" target="e5nqMC2MjUgeMc-HwoTc-21">
          <mxGeometry relative="1" as="geometry" />
        </mxCell>
        <mxCell id="e5nqMC2MjUgeMc-HwoTc-2" value="HW assembly" style="rounded=0;whiteSpace=wrap;html=1;" vertex="1" parent="1">
          <mxGeometry x="80" y="480" width="200" height="80" as="geometry" />
        </mxCell>
        <mxCell id="e5nqMC2MjUgeMc-HwoTc-33" style="edgeStyle=orthogonalEdgeStyle;rounded=0;orthogonalLoop=1;jettySize=auto;html=1;exitX=0;exitY=0.25;exitDx=0;exitDy=0;entryX=0;entryY=0.75;entryDx=0;entryDy=0;fontSize=15;strokeColor=default;" edge="1" parent="1" source="e5nqMC2MjUgeMc-HwoTc-3" target="e5nqMC2MjUgeMc-HwoTc-4">
          <mxGeometry relative="1" as="geometry" />
        </mxCell>
        <mxCell id="e5nqMC2MjUgeMc-HwoTc-47" style="edgeStyle=orthogonalEdgeStyle;rounded=0;orthogonalLoop=1;jettySize=auto;html=1;exitX=1;exitY=0.5;exitDx=0;exitDy=0;entryX=1;entryY=0.25;entryDx=0;entryDy=0;fontSize=15;strokeColor=default;" edge="1" parent="1" source="e5nqMC2MjUgeMc-HwoTc-3" target="e5nqMC2MjUgeMc-HwoTc-12">
          <mxGeometry relative="1" as="geometry">
            <Array as="points">
              <mxPoint x="790" y="600" />
              <mxPoint x="790" y="260" />
            </Array>
          </mxGeometry>
        </mxCell>
        <mxCell id="e5nqMC2MjUgeMc-HwoTc-3" value="HW design and verification" style="rounded=0;whiteSpace=wrap;html=1;" vertex="1" parent="1">
          <mxGeometry x="530" y="560" width="200" height="80" as="geometry" />
        </mxCell>
        <mxCell id="e5nqMC2MjUgeMc-HwoTc-32" style="edgeStyle=orthogonalEdgeStyle;rounded=0;orthogonalLoop=1;jettySize=auto;html=1;exitX=1;exitY=0.75;exitDx=0;exitDy=0;entryX=1;entryY=0.25;entryDx=0;entryDy=0;fontSize=15;strokeColor=default;" edge="1" parent="1" source="e5nqMC2MjUgeMc-HwoTc-4" target="e5nqMC2MjUgeMc-HwoTc-3">
          <mxGeometry relative="1" as="geometry" />
        </mxCell>
        <mxCell id="e5nqMC2MjUgeMc-HwoTc-46" style="edgeStyle=orthogonalEdgeStyle;rounded=0;orthogonalLoop=1;jettySize=auto;html=1;exitX=1;exitY=0.25;exitDx=0;exitDy=0;entryX=1;entryY=0.5;entryDx=0;entryDy=0;fontSize=15;strokeColor=default;" edge="1" parent="1" source="e5nqMC2MjUgeMc-HwoTc-4" target="e5nqMC2MjUgeMc-HwoTc-12">
          <mxGeometry relative="1" as="geometry">
            <Array as="points">
              <mxPoint x="780" y="500" />
              <mxPoint x="780" y="280" />
            </Array>
          </mxGeometry>
        </mxCell>
        <mxCell id="e5nqMC2MjUgeMc-HwoTc-4" value="SW dev (firmware...)" style="rounded=0;whiteSpace=wrap;html=1;" vertex="1" parent="1">
          <mxGeometry x="530" y="480" width="200" height="80" as="geometry" />
        </mxCell>
        <mxCell id="e5nqMC2MjUgeMc-HwoTc-34" style="edgeStyle=orthogonalEdgeStyle;rounded=0;orthogonalLoop=1;jettySize=auto;html=1;exitX=0;exitY=0.75;exitDx=0;exitDy=0;entryX=1;entryY=0.75;entryDx=0;entryDy=0;fontSize=15;strokeColor=default;" edge="1" parent="1" source="e5nqMC2MjUgeMc-HwoTc-5" target="e5nqMC2MjUgeMc-HwoTc-21">
          <mxGeometry relative="1" as="geometry" />
        </mxCell>
        <mxCell id="e5nqMC2MjUgeMc-HwoTc-36" style="edgeStyle=orthogonalEdgeStyle;rounded=0;orthogonalLoop=1;jettySize=auto;html=1;exitX=0;exitY=0.5;exitDx=0;exitDy=0;fontSize=15;strokeColor=default;entryX=1;entryY=0.5;entryDx=0;entryDy=0;" edge="1" parent="1" source="e5nqMC2MjUgeMc-HwoTc-5" target="e5nqMC2MjUgeMc-HwoTc-37">
          <mxGeometry relative="1" as="geometry">
            <mxPoint x="490" y="440" as="targetPoint" />
          </mxGeometry>
        </mxCell>
        <mxCell id="e5nqMC2MjUgeMc-HwoTc-44" style="edgeStyle=orthogonalEdgeStyle;rounded=0;orthogonalLoop=1;jettySize=auto;html=1;exitX=1;exitY=0.25;exitDx=0;exitDy=0;entryX=1;entryY=0.75;entryDx=0;entryDy=0;fontSize=15;strokeColor=default;" edge="1" parent="1" source="e5nqMC2MjUgeMc-HwoTc-5" target="e5nqMC2MjUgeMc-HwoTc-6">
          <mxGeometry relative="1" as="geometry">
            <Array as="points">
              <mxPoint x="750" y="420" />
              <mxPoint x="750" y="380" />
            </Array>
          </mxGeometry>
        </mxCell>
        <mxCell id="e5nqMC2MjUgeMc-HwoTc-48" style="edgeStyle=orthogonalEdgeStyle;rounded=0;orthogonalLoop=1;jettySize=auto;html=1;exitX=0;exitY=0.25;exitDx=0;exitDy=0;entryX=1;entryY=0.75;entryDx=0;entryDy=0;fontSize=15;strokeColor=default;" edge="1" parent="1" source="e5nqMC2MjUgeMc-HwoTc-5" target="e5nqMC2MjUgeMc-HwoTc-22">
          <mxGeometry relative="1" as="geometry" />
        </mxCell>
        <mxCell id="e5nqMC2MjUgeMc-HwoTc-49" style="edgeStyle=orthogonalEdgeStyle;rounded=0;orthogonalLoop=1;jettySize=auto;html=1;exitX=1;exitY=0.75;exitDx=0;exitDy=0;entryX=1;entryY=0.75;entryDx=0;entryDy=0;fontSize=15;endArrow=classicThin;endFill=1;strokeColor=default;" edge="1" parent="1" source="e5nqMC2MjUgeMc-HwoTc-5" target="e5nqMC2MjUgeMc-HwoTc-12">
          <mxGeometry relative="1" as="geometry">
            <Array as="points">
              <mxPoint x="770" y="460" />
              <mxPoint x="770" y="300" />
            </Array>
          </mxGeometry>
        </mxCell>
        <mxCell id="e5nqMC2MjUgeMc-HwoTc-5" value="SW dev (web store, presentation, contact,&amp;nbsp;B2B API)" style="rounded=0;whiteSpace=wrap;html=1;" vertex="1" parent="1">
          <mxGeometry x="530" y="400" width="200" height="80" as="geometry" />
        </mxCell>
        <mxCell id="e5nqMC2MjUgeMc-HwoTc-50" style="edgeStyle=orthogonalEdgeStyle;rounded=0;orthogonalLoop=1;jettySize=auto;html=1;exitX=1;exitY=0.5;exitDx=0;exitDy=0;entryX=1;entryY=0.5;entryDx=0;entryDy=0;fontSize=15;endArrow=classicThin;endFill=1;strokeColor=default;" edge="1" parent="1" source="e5nqMC2MjUgeMc-HwoTc-6" target="e5nqMC2MjUgeMc-HwoTc-5">
          <mxGeometry relative="1" as="geometry">
            <Array as="points">
              <mxPoint x="760" y="360" />
              <mxPoint x="760" y="440" />
            </Array>
          </mxGeometry>
        </mxCell>
        <mxCell id="e5nqMC2MjUgeMc-HwoTc-51" style="edgeStyle=orthogonalEdgeStyle;rounded=0;orthogonalLoop=1;jettySize=auto;html=1;exitX=0;exitY=0.5;exitDx=0;exitDy=0;entryX=1;entryY=0.5;entryDx=0;entryDy=0;fontSize=15;endArrow=classicThin;endFill=1;strokeColor=default;" edge="1" parent="1" source="e5nqMC2MjUgeMc-HwoTc-6" target="e5nqMC2MjUgeMc-HwoTc-22">
          <mxGeometry relative="1" as="geometry" />
        </mxCell>
        <mxCell id="e5nqMC2MjUgeMc-HwoTc-6" value="Sales" style="rounded=0;whiteSpace=wrap;html=1;" vertex="1" parent="1">
          <mxGeometry x="530" y="320" width="200" height="80" as="geometry" />
        </mxCell>
        <mxCell id="e5nqMC2MjUgeMc-HwoTc-8" value="&lt;b&gt;&lt;font style=&quot;font-size: 15px&quot;&gt;FAB&lt;/font&gt;&lt;/b&gt;" style="text;html=1;strokeColor=none;fillColor=none;align=center;verticalAlign=middle;whiteSpace=wrap;rounded=0;" vertex="1" parent="1">
          <mxGeometry x="150" y="250" width="60" height="30" as="geometry" />
        </mxCell>
        <mxCell id="e5nqMC2MjUgeMc-HwoTc-9" value="&lt;b&gt;&lt;font style=&quot;font-size: 15px&quot;&gt;Offices&lt;/font&gt;&lt;/b&gt;" style="text;html=1;strokeColor=none;fillColor=none;align=center;verticalAlign=middle;whiteSpace=wrap;rounded=0;" vertex="1" parent="1">
          <mxGeometry x="600" y="90" width="60" height="30" as="geometry" />
        </mxCell>
        <mxCell id="e5nqMC2MjUgeMc-HwoTc-11" value="Management&lt;br&gt;(on vacation :D)" style="rounded=0;whiteSpace=wrap;html=1;" vertex="1" parent="1">
          <mxGeometry x="530" y="160" width="200" height="80" as="geometry" />
        </mxCell>
        <mxCell id="e5nqMC2MjUgeMc-HwoTc-12" value="IT" style="rounded=0;whiteSpace=wrap;html=1;" vertex="1" parent="1">
          <mxGeometry x="530" y="240" width="200" height="80" as="geometry" />
        </mxCell>
        <mxCell id="e5nqMC2MjUgeMc-HwoTc-13" value="" style="rounded=0;whiteSpace=wrap;html=1;" vertex="1" parent="1">
          <mxGeometry x="230" y="290" width="30" height="30" as="geometry" />
        </mxCell>
        <mxCell id="e5nqMC2MjUgeMc-HwoTc-14" value="" style="ellipse;whiteSpace=wrap;html=1;aspect=fixed;" vertex="1" parent="1">
          <mxGeometry x="240" y="260" width="20" height="20" as="geometry" />
        </mxCell>
        <mxCell id="e5nqMC2MjUgeMc-HwoTc-15" value="" style="ellipse;whiteSpace=wrap;html=1;aspect=fixed;" vertex="1" parent="1">
          <mxGeometry x="250" y="220" width="30" height="30" as="geometry" />
        </mxCell>
        <mxCell id="e5nqMC2MjUgeMc-HwoTc-17" value="" style="ellipse;whiteSpace=wrap;html=1;aspect=fixed;" vertex="1" parent="1">
          <mxGeometry x="280" y="200" width="20" height="20" as="geometry" />
        </mxCell>
        <mxCell id="e5nqMC2MjUgeMc-HwoTc-19" value="" style="ellipse;shape=cloud;whiteSpace=wrap;html=1;" vertex="1" parent="1">
          <mxGeometry x="270" y="140" width="100" height="60" as="geometry" />
        </mxCell>
        <mxCell id="e5nqMC2MjUgeMc-HwoTc-20" value="" style="ellipse;shape=cloud;whiteSpace=wrap;html=1;" vertex="1" parent="1">
          <mxGeometry x="220" y="170" width="60" height="50" as="geometry" />
        </mxCell>
        <mxCell id="e5nqMC2MjUgeMc-HwoTc-21" value="Warehouse" style="rounded=0;whiteSpace=wrap;html=1;" vertex="1" parent="1">
          <mxGeometry x="80" y="560" width="200" height="80" as="geometry" />
        </mxCell>
        <mxCell id="e5nqMC2MjUgeMc-HwoTc-24" style="edgeStyle=orthogonalEdgeStyle;rounded=0;orthogonalLoop=1;jettySize=auto;html=1;exitX=0;exitY=0.75;exitDx=0;exitDy=0;entryX=0;entryY=0.25;entryDx=0;entryDy=0;fontSize=15;" edge="1" parent="1" source="e5nqMC2MjUgeMc-HwoTc-22" target="e5nqMC2MjUgeMc-HwoTc-1">
          <mxGeometry relative="1" as="geometry" />
        </mxCell>
        <mxCell id="e5nqMC2MjUgeMc-HwoTc-25" style="edgeStyle=orthogonalEdgeStyle;rounded=0;orthogonalLoop=1;jettySize=auto;html=1;entryX=0;entryY=0.25;entryDx=0;entryDy=0;fontSize=15;exitX=0;exitY=0.5;exitDx=0;exitDy=0;" edge="1" parent="1" source="e5nqMC2MjUgeMc-HwoTc-22" target="e5nqMC2MjUgeMc-HwoTc-2">
          <mxGeometry relative="1" as="geometry">
            <Array as="points">
              <mxPoint x="50" y="360" />
              <mxPoint x="50" y="500" />
            </Array>
          </mxGeometry>
        </mxCell>
        <mxCell id="e5nqMC2MjUgeMc-HwoTc-26" style="edgeStyle=orthogonalEdgeStyle;rounded=0;orthogonalLoop=1;jettySize=auto;html=1;exitX=0;exitY=0.25;exitDx=0;exitDy=0;entryX=0;entryY=0.25;entryDx=0;entryDy=0;fontSize=15;" edge="1" parent="1" source="e5nqMC2MjUgeMc-HwoTc-22" target="e5nqMC2MjUgeMc-HwoTc-21">
          <mxGeometry relative="1" as="geometry">
            <Array as="points">
              <mxPoint x="40" y="340" />
              <mxPoint x="40" y="580" />
            </Array>
          </mxGeometry>
        </mxCell>
        <mxCell id="e5nqMC2MjUgeMc-HwoTc-22" value="Logistics Dept." style="rounded=0;whiteSpace=wrap;html=1;" vertex="1" parent="1">
          <mxGeometry x="80" y="320" width="200" height="80" as="geometry" />
        </mxCell>
        <mxCell id="e5nqMC2MjUgeMc-HwoTc-37" value="external services" style="text;html=1;strokeColor=none;fillColor=none;align=center;verticalAlign=middle;whiteSpace=wrap;rounded=0;fontSize=15;" vertex="1" parent="1">
          <mxGeometry x="354" y="425" width="120" height="30" as="geometry" />
        </mxCell>
        <mxCell id="e5nqMC2MjUgeMc-HwoTc-52" value="&lt;font style=&quot;font-size: 20px&quot;&gt;&lt;b&gt;Embedded Corporation&lt;/b&gt;&lt;/font&gt;" style="text;html=1;strokeColor=none;fillColor=none;align=center;verticalAlign=middle;whiteSpace=wrap;rounded=0;fontSize=15;" vertex="1" parent="1">
          <mxGeometry x="299" y="10" width="230" height="30" as="geometry" />
        </mxCell>
      </root>
    </mxGraphModel>
  </diagram>
</mxfile>
